<svg width="29" height="21" viewBox="0 0 29 21" fill="none" xmlns="http://www.w3.org/2000/svg">
<path d="M10.8326 20.1883L10.8247 20.185L10.7998 20.172C10.6543 20.0953 10.51 20.0166 10.3668 19.9359C8.64615 18.956 7.0381 17.8049 5.5694 16.5017C2.96833 14.1758 0.212402 10.7243 0.212402 6.47328C0.212402 3.30128 2.99772 0.785782 6.35955 0.785782C7.29412 0.781396 8.21769 0.978985 9.06158 1.36385C9.90548 1.74872 10.648 2.31097 11.2339 3.00878C11.8199 2.31083 12.5625 1.7485 13.4066 1.36362C14.2507 0.978743 15.1745 0.781232 16.1093 0.785782C19.47 0.785782 22.2553 3.30128 22.2553 6.47328C22.2553 10.7254 19.4994 14.1769 16.8983 16.5006C15.4296 17.8038 13.8216 18.9549 12.1009 19.9348C11.9578 20.0159 11.8134 20.095 11.6679 20.172L11.6431 20.185L11.6352 20.1894L11.6318 20.1905C11.5092 20.2527 11.3726 20.2852 11.2339 20.2852C11.0951 20.2852 10.9585 20.2527 10.836 20.1905L10.8326 20.1883Z" fill="white"/>
<path d="M20.8197 18.3977L23.9106 12.6096H21.7789V8.86439L18.5815 14.6525H20.8197V18.3977ZM21.246 20.4406C20.2631 20.4406 19.3394 20.2618 18.4749 19.9043C17.6104 19.5468 16.8584 19.0617 16.219 18.4488C15.5795 17.8359 15.0732 17.1153 14.7002 16.2868C14.3271 15.4583 14.1406 14.573 14.1406 13.6311C14.1406 12.6891 14.3271 11.8038 14.7002 10.9753C15.0732 10.1469 15.5795 9.42618 16.219 8.81332C16.8584 8.20046 17.6104 7.71528 18.4749 7.35778C19.3394 7.00028 20.2631 6.82153 21.246 6.82153C22.2289 6.82153 23.1527 7.00028 24.0171 7.35778C24.8816 7.71528 25.6336 8.20046 26.2731 8.81332C26.9126 9.42618 27.4189 10.1469 27.7919 10.9753C28.1649 11.8038 28.3514 12.6891 28.3514 13.6311C28.3514 14.573 28.1649 15.4583 27.7919 16.2868C27.4189 17.1153 26.9126 17.8359 26.2731 18.4488C25.6336 19.0617 24.8816 19.5468 24.0171 19.9043C23.1527 20.2618 22.2289 20.4406 21.246 20.4406Z" fill="#894189"/>
<path d="M21.1815 17.9644L23.9914 12.7025H22.0535V9.29769L19.1468 14.5596H21.1815V17.9644ZM21.5691 19.8215C20.6755 19.8215 19.8358 19.659 19.0499 19.334C18.264 19.009 17.5804 18.5679 16.999 18.0108C16.4177 17.4536 15.9574 16.7985 15.6183 16.0453C15.2792 15.2921 15.1096 14.4874 15.1096 13.631C15.1096 12.7747 15.2792 11.9699 15.6183 11.2167C15.9574 10.4636 16.4177 9.80841 16.999 9.25127C17.5804 8.69412 18.264 8.25305 19.0499 7.92805C19.8358 7.60305 20.6755 7.44055 21.5691 7.44055C22.4626 7.44055 23.3024 7.60305 24.0883 7.92805C24.8742 8.25305 25.5578 8.69412 26.1392 9.25127C26.7205 9.80841 27.1807 10.4636 27.5199 11.2167C27.859 11.9699 28.0285 12.7747 28.0285 13.631C28.0285 14.4874 27.859 15.2921 27.5199 16.0453C27.1807 16.7985 26.7205 17.4536 26.1392 18.0108C25.5578 18.5679 24.8742 19.009 24.0883 19.334C23.3024 19.659 22.4626 19.8215 21.5691 19.8215Z" fill="white"/>
</svg>
